
<svg xmlns="http://www.w3.org/2000/svg" width="33" height="15" viewBox="0 0 33 15" fill="none">
<path d="M7.576 10.064L5.128 14H0.904L5.2 7.592L1.216 1.28H5.416L7.576 4.952L9.76 1.28H13.888L9.904 7.52L14.224 14H9.904L7.576 10.064ZM19.8473 0.967999C21.2233 0.967999 22.4073 1.24 23.3993 1.784C24.4073 2.328 25.1753 3.104 25.7033 4.112C26.2313 5.104 26.4953 6.28 26.4953 7.64C26.4953 9.704 25.9033 11.336 24.7193 12.536C23.5353 13.72 21.9113 14.312 19.8473 14.312C17.7513 14.312 16.1113 13.72 14.9273 12.536C13.7593 11.352 13.1753 9.72 13.1753 7.64C13.1753 5.576 13.7593 3.952 14.9273 2.768C16.1113 1.568 17.7513 0.967999 19.8473 0.967999ZM19.8473 11.504C20.7113 11.504 21.3833 11.184 21.8633 10.544C22.3593 9.904 22.6073 8.936 22.6073 7.64C22.6073 6.36 22.3593 5.4 21.8633 4.76C21.3833 4.104 20.7113 3.776 19.8473 3.776C18.9673 3.776 18.2793 4.104 17.7833 4.76C17.2873 5.4 17.0393 6.36 17.0393 7.64C17.0393 8.936 17.2873 9.904 17.7833 10.544C18.2793 11.184 18.9673 11.504 19.8473 11.504ZM32.0808 10.016V14H27.8568V10.016H32.0808Z" fill="#0A47C4"/>
</svg>